<svg xmlns="http://www.w3.org/2000/svg" xmlns:xlink="http://www.w3.org/1999/xlink" version="1.1" id="599155804_Capa_1_grid" x="0px" y="0px" width="32px" height="32px" viewBox="0 0 32 32" style="enable-background:new 0 0 32 32;" xml:space="preserve">
<g>
	<path d="M25,3v18h6V3H25z M30,20h-4V4h4V20z" style="fill: rgb(255, 89, 22);"></path>
	<path d="M20.42,3H7.767C6.409,3,4.9,3.976,4.401,5.186l-3.367,8.633L1,18.5C1,20.79,2.21,22,4.5,22h7.36l-1.274,5.112l-0.051,0.507   c0,0.642,1.223,2.104,2.249,3.22l0.346,0.376l9.218-8.854C22.93,21.798,24,20.058,24,18.9V6.5C24,4.701,22.26,3,20.42,3z M23,18.9   c0,0.788-0.892,2.301-1.347,2.739l-8.477,8.143c-0.799-0.902-1.582-1.899-1.646-2.11l0.036-0.386L13.141,21H4.5   C2.771,21,2,20.229,2,18.5v-4.406l3.329-8.536C5.672,4.728,6.811,4,7.767,4H20.42C21.722,4,23,5.238,23,6.5V18.9z" style="fill: rgb(255, 89, 22);"></path>
</g>
</svg>