<svg xmlns="http://www.w3.org/2000/svg" xmlns:xlink="http://www.w3.org/1999/xlink" version="1.1" x="0px" y="0px" width="16px" height="16px" viewBox="0 0 16 16" style="enable-background:new 0 0 16 16;" xml:space="preserve">
<path d="M18,10V8.5C18,7.434,18.181,7,20,7h4V1h-5c-5.299,0-7,1.58-7,6.5V10H9v6h3v14h6V16h4.91l1.2-6H18z M22.09,15H17v14h-4V15h-3  v-4h3V7.5C13,3.131,14.233,2,19,2h4v4h-3c-1.801,0-3,0.425-3,2.5V11h5.89L22.09,15z"   stroke="#fe553e " stroke-width="0" fill="white" ></path>
</svg>