<svg xmlns="http://www.w3.org/2000/svg" xmlns:xlink="http://www.w3.org/1999/xlink" version="1.1" id="599155753_Capa_1_grid" x="0px" y="0px" width="32px" height="32px" viewBox="0 0 32 32" style="enable-background:new 0 0 32 32;" xml:space="preserve">
<path d="M22.295,3.01c-3.296,0-4.925,1.401-6.295,3.07c-1.37-1.669-3-3.07-6.295-3.07c-5.12,0-8.695,3.974-8.695,9.663  c0,6.974,8.457,12.869,14.053,16.771L16,30.099l0.938-0.655c5.596-3.901,14.053-9.797,14.053-16.771  C30.99,6.983,27.415,3.01,22.295,3.01z M16.377,28.64L16,28.902l-0.377-0.263C10.194,24.854,1.99,19.135,1.99,12.673  c0-4.182,2.414-8.683,7.715-8.683c3.172,0,4.553,1.438,5.908,3.177L16,7.662l0.387-0.495c1.355-1.738,2.736-3.177,5.908-3.177  c5.301,0,7.715,4.501,7.715,8.683C30.01,19.135,21.806,24.854,16.377,28.64z" style="fill: rgb(255, 89, 22);"></path>
</svg>