<svg xmlns="http://www.w3.org/2000/svg" xmlns:xlink="http://www.w3.org/1999/xlink" version="1.1" id="599155762_Capa_1_grid" x="0px" y="0px" width="32px" height="32px" viewBox="0 0 32 32" style="enable-background:new 0 0 32 32;" xml:space="preserve">
<g>
	<path d="M22.5,10c-2.008,0-3.578,1.194-4.5,2.129V10h-6v20h6V18.5c0-0.103,0.034-2.5,3-2.5c2.892,0,2.997,2.246,3,2.5V30h6V18   C30,12.767,27.406,10,22.5,10z M29,29h-4V18.5c0-0.035-0.046-3.5-4-3.5s-4,3.465-4,3.5V29h-4V11h4v4.143l0.916-1.365   C17.935,13.75,19.811,11,22.5,11c4.313,0,6.5,2.355,6.5,7V29z" style="fill: rgb(255, 89, 22);"></path>
	<path d="M6,2C4.346,2,3,3.346,3,5s1.346,3,3,3s3-1.346,3-3S7.654,2,6,2z M6,7C4.897,7,4,6.103,4,5s0.897-2,2-2s2,0.897,2,2   S7.103,7,6,7z" style="fill: rgb(255, 89, 22);"></path>
	<path d="M3,30h6V10H3V30z M4,11h4v18H4V11z" style="fill: rgb(255, 89, 22);"></path>
</g>
</svg>