<svg xmlns="http://www.w3.org/2000/svg" xmlns:xlink="http://www.w3.org/1999/xlink" version="1.1" id="599155781_Capa_1_grid" x="0px" y="0px" width="32px" height="32px" viewBox="0 0 32 32" style="enable-background:new 0 0 32 32;" xml:space="preserve">
<g>
	<path d="M16,1C7.729,1,1,7.729,1,16c0,8.271,6.729,15,15,15c8.271,0,15-6.729,15-15C31,7.729,24.271,1,16,1z M16,30   C8.28,30,2,23.72,2,16S8.28,2,16,2s14,6.28,14,14S23.72,30,16,30z" style="fill: rgb(255, 89, 22);"></path>
	<path d="M23.607,9.139c-0.61-1.055-1.494-1.962-2.558-2.624c-2.023-1.263-4.719-1.596-7.284-0.914   c-2.298,0.613-4.168,1.999-5.263,3.901C7.828,10.661,7.5,11.91,7.5,13.32c0,1.502,0.303,2.595,0.985,3.543   c0.179,0.246,1.12,1.477,2.11,1.477c0.494,0,0.936-0.371,1.104-0.727c0.154-0.335,0.25-0.733,0.255-1.05   c0.022-0.469-0.279-0.808-0.499-1.056l-0.095-0.108c-0.229-0.259-0.396-0.636-0.496-1.117c-0.397-1.993,0.617-4.274,2.359-5.307   c0.929-0.55,1.795-0.775,2.99-0.775c1.153,0,2.218,0.374,3.077,1.082c0.762,0.625,1.285,1.583,1.401,2.563   c0.128,1.065-0.011,2.229-0.414,3.461c-0.317,0.986-1.012,1.995-1.76,2.565c-0.311,0.227-0.62,0.328-1.004,0.328   c-0.542,0-1.661-0.246-1.661-1.005c0-0.474,0.154-0.962,0.303-1.433l0.106-0.342c0.08-0.264,0.182-0.503,0.283-0.741   c0.136-0.321,0.276-0.653,0.375-1.047c0.181-0.745,0.178-1.566-0.006-2.198c-0.311-1.058-1.038-1.665-1.995-1.665   c-0.773,0-1.605,0.415-2.12,1.057c-0.992,1.239-0.896,3.1-0.354,4.461c-0.365,1.554-1.489,6.609-1.694,7.873   c-0.08,0.472-0.447,2.858,0.161,3.578C11.055,26.907,11.248,27,11.455,27c1.106,0,1.989-1.834,2.415-2.926   c0.219-0.553,0.755-2.475,1.083-3.694c0.566,0.488,1.442,0.979,2.59,0.979c1.173,0,2.894-0.324,4.433-1.868   c1.633-1.604,2.53-3.958,2.524-6.626c0-0.584,0-1.246-0.168-1.927C24.182,10.313,23.938,9.707,23.607,9.139z M21.271,18.782   c-1.044,1.047-2.298,1.577-3.755,1.577c-1.361,0-2.223-0.992-2.379-1.258l-0.62-1.053l-0.296,1.186   c-0.197,0.786-1.027,3.832-1.281,4.475c-0.456,1.167-0.999,1.964-1.314,2.21c-0.084-0.429-0.083-1.431,0.114-2.594   c0.21-1.295,1.402-6.642,1.717-7.964l0.039-0.163l-0.067-0.153c-0.463-1.06-0.613-2.637,0.152-3.592   c0.327-0.408,0.866-0.683,1.34-0.683c0.503,0,0.851,0.318,1.035,0.945c0.135,0.463,0.133,1.108-0.005,1.678   c-0.079,0.314-0.198,0.597-0.325,0.896c-0.114,0.27-0.228,0.541-0.319,0.842l-0.102,0.329c-0.164,0.518-0.349,1.105-0.349,1.734   c0,1.302,1.371,2.005,2.661,2.005c0.594,0,1.115-0.171,1.602-0.527c0.908-0.691,1.737-1.892,2.113-3.057   c0.448-1.371,0.602-2.679,0.455-3.889c-0.145-1.23-0.802-2.433-1.759-3.218C18.887,7.653,17.604,7.2,16.215,7.2   c-1.372,0-2.418,0.273-3.5,0.915c-2.09,1.238-3.307,3.974-2.829,6.367c0.137,0.657,0.38,1.188,0.718,1.571l0.104,0.12   c0.08,0.09,0.246,0.277,0.247,0.359c-0.003,0.191-0.069,0.458-0.162,0.658c-0.029,0.061-0.146,0.148-0.199,0.15   c-0.317,0-0.928-0.55-1.299-1.062C8.738,15.502,8.5,14.617,8.5,13.32c0-1.229,0.284-2.313,0.868-3.316   c0.963-1.672,2.616-2.893,4.655-3.436c2.298-0.609,4.707-0.322,6.499,0.796c0.924,0.575,1.692,1.362,2.221,2.276   c0.282,0.484,0.489,1,0.618,1.533c0.13,0.526,0.14,1.033,0.14,1.692C23.505,15.264,22.715,17.364,21.271,18.782z" style="fill: rgb(255, 89, 22);"></path>
</g>
</svg>