<svg xmlns="http://www.w3.org/2000/svg" xmlns:xlink="http://www.w3.org/1999/xlink" version="1.1" id="599155789_Capa_1_grid" x="0px" y="0px" width="32px" height="32px" viewBox="0 0 32 32" style="enable-background:new 0 0 32 32;" xml:space="preserve">
<g>
	<path d="M20,20c1.654,0,3-1.346,3-3s-1.346-3-3-3s-3,1.346-3,3S18.346,20,20,20z M20,15c1.103,0,2,0.897,2,2c0,1.103-0.897,2-2,2   s-2-0.897-2-2C18,15.897,18.897,15,20,15z" style="fill: rgb(255, 89, 22);"></path>
	<path d="M12,20c1.654,0,3-1.346,3-3s-1.346-3-3-3s-3,1.346-3,3S10.346,20,12,20z M12,15c1.103,0,2,0.897,2,2c0,1.103-0.897,2-2,2   s-2-0.897-2-2C10,15.897,10.897,15,12,15z" style="fill: rgb(255, 89, 22);"></path>
	<path d="M23.75,20.564c-0.24-0.14-0.545-0.055-0.686,0.186C23.045,20.785,21.15,24,16,24c-5.17,0-6.985-3.105-7.065-3.245   C8.805,20.516,8.5,20.43,8.26,20.561C8.015,20.695,7.93,21,8.06,21.24C8.145,21.395,10.21,25,16,25c5.725,0,7.846-3.6,7.936-3.75   C24.07,21.01,23.99,20.705,23.75,20.564z" style="fill: rgb(255, 89, 22);"></path>
	<path d="M31.25,14.75c0-2.481-2.019-4.5-4.5-4.5c-0.932,0-1.805,0.292-2.56,0.819c-2.13-1.21-4.755-1.957-7.611-2.048L17.4,3.684   l3.689,1.384c0.037,1.576,1.325,2.849,2.91,2.849c1.608,0,2.917-1.308,2.917-2.917S25.608,2.083,24,2.083   c-1.277,0-2.354,0.831-2.748,1.977L16.6,2.316l-1.031,6.7c-2.913,0.069-5.592,0.822-7.759,2.053   c-0.755-0.528-1.629-0.819-2.56-0.819c-2.481,0-4.5,2.019-4.5,4.5c0,1.424,0.67,2.738,1.795,3.585C2.526,18.556,2.5,18.775,2.5,19   c0,5.514,6.056,10,13.5,10c7.444,0,13.5-4.486,13.5-10c0-0.225-0.025-0.444-0.046-0.665C30.58,17.488,31.25,16.173,31.25,14.75z    M24,2.917c1.148,0,2.083,0.935,2.083,2.083S25.148,7.083,24,7.083S21.917,6.149,21.917,5S22.852,2.917,24,2.917z M1.75,14.75   c0-1.93,1.57-3.5,3.5-3.5c0.575,0,1.124,0.143,1.621,0.405c-2.103,1.435-3.591,3.352-4.134,5.517   C2.114,16.529,1.75,15.671,1.75,14.75z M16,28c-6.893,0-12.5-4.037-12.5-9c0-4.962,5.607-9,12.5-9s12.5,4.038,12.5,9   C28.5,23.963,22.893,28,16,28z M25.13,11.655c0.497-0.262,1.045-0.405,1.62-0.405c1.93,0,3.5,1.57,3.5,3.5   c0,0.92-0.363,1.778-0.986,2.422C28.721,15.006,27.232,13.09,25.13,11.655z" style="fill: rgb(255, 89, 22);"></path>
</g>
</svg>