<svg xmlns="http://www.w3.org/2000/svg" xmlns:xlink="http://www.w3.org/1999/xlink" version="1.1" id="599155792_Capa_1_grid" x="0px" y="0px" width="32px" height="32px" viewBox="0 0 32 32" style="enable-background:new 0 0 32 32;" xml:space="preserve">
<g>
	<path d="M29.03,17.757c0.041-0.204,0.104-0.456,0.169-0.721c0.147-0.6,0.301-1.221,0.301-1.633c0-7.696-5.804-13.5-13.5-13.5   c-1.008,0-2.428,0.209-3.41,0.431c-1.24-0.767-2.466-1.125-3.84-1.125C4.477,1.208,1,4.685,1,8.958   c0,1.517,0.434,2.974,1.256,4.229C2.086,14.042,2,15.122,2,16.403c0,7.85,5.93,14,13.5,14c1.587,0,3.212-0.496,4.49-0.957   c0.819,0.396,2.211,0.957,3.51,0.957c4.206,0,7.5-3.404,7.5-7.75C31,20.524,29.829,18.731,29.03,17.757z M23.5,29.402   c-1.247,0-2.691-0.662-3.255-0.946l-0.194-0.098l-0.204,0.074c-1.133,0.417-2.815,0.97-4.347,0.97c-7.009,0-12.5-5.71-12.5-13   c0-1.317,0.093-2.396,0.277-3.209l0.048-0.215l-0.126-0.181C2.415,11.671,2,10.344,2,8.958c0-3.722,3.028-6.75,6.75-6.75   c1.24,0,2.345,0.343,3.478,1.079l0.181,0.117l0.209-0.051C13.517,3.135,15.007,2.903,16,2.903c7.126,0,12.5,5.374,12.5,12.5   c0,0.292-0.15,0.903-0.271,1.395c-0.101,0.409-0.193,0.792-0.225,1.043l-0.027,0.22l0.145,0.168C29.315,19.619,30,21.231,30,22.652   C30,26.438,27.145,29.402,23.5,29.402z" style="fill: rgb(255, 89, 22);"></path>
	<path d="M21.409,15.302c-1.109-0.743-2.558-1.313-4.306-1.693c-0.278-0.06-0.582-0.114-0.897-0.169   c-0.58-0.102-1.179-0.208-1.719-0.37c-1.326-0.383-1.524-0.888-1.558-1.232c-0.052-0.579,0.041-0.977,0.293-1.253   c0.414-0.453,1.342-0.683,2.749-0.683c1.725,0.042,2.309,0.639,2.8,1.298c0.61,0.828,1.241,1.571,2.243,1.571   c0.435,0,0.904-0.142,1.437-0.434c0.599-0.329,0.812-1.429,0.507-2.617c-0.26-1.013-1.565-4.317-7.458-4.317   c-7.138,0-7.5,5.415-7.5,6.5c0,1.096,0.25,2.747,2.406,4.424c1.085,0.854,2.558,1.474,4.375,1.838   c0.492,0.099,0.966,0.172,1.412,0.241c0.462,0.072,0.893,0.138,1.275,0.224C19,18.976,19,19.649,19,19.902c0,1.41-0.396,2-2.855,2   c-0.078,0-1.93-0.019-3.333-1.675c-0.489-0.578-1.462-1.199-2.441-1.199c-0.59,0-1.109,0.229-1.502,0.666   c-0.549,0.613-0.804,1.998-0.197,3.356c0.56,1.252,2.275,3.352,7.473,3.352c4.987,0,7.785-2.278,7.878-6.46   C24.084,17.594,22.635,16.123,21.409,15.302z M16.145,25.402c-4.634,0-6.1-1.729-6.561-2.76c-0.474-1.06-0.215-2.009,0.028-2.28   c0.203-0.225,0.451-0.334,0.758-0.334c0.602,0,1.326,0.43,1.679,0.846c1.699,2.005,3.998,2.028,4.095,2.028   c2.38,0,3.855-0.502,3.855-3c0-0.787-0.401-1.816-2.312-2.248c-0.403-0.09-0.855-0.161-1.341-0.236   c-0.433-0.067-0.893-0.139-1.369-0.233c-1.662-0.333-2.992-0.886-3.955-1.645C9.23,14.145,9,12.863,9,11.903   c0-1.29,0.469-5.5,6.5-5.5c4.37,0,5.829,1.902,6.31,3.036c0.449,1.059,0.258,1.913,0.161,2.021   c-1.098,0.601-1.521,0.332-2.396-0.856c-0.593-0.795-1.407-1.649-3.592-1.703c-1.759,0.001-2.871,0.321-3.499,1.009   c-0.449,0.492-0.629,1.151-0.551,2.021c0.145,1.484,1.749,1.947,2.272,2.098c0.592,0.177,1.22,0.288,1.827,0.395   c0.303,0.054,0.595,0.105,0.86,0.162c1.623,0.353,2.956,0.873,3.96,1.546c1.018,0.681,2.22,1.89,2.17,3.832   C22.922,24.459,19.228,25.402,16.145,25.402z" style="fill: rgb(255, 89, 22);"></path>
</g>
</svg>