<svg xmlns="http://www.w3.org/2000/svg" xmlns:xlink="http://www.w3.org/1999/xlink" version="1.1" id="599155795_Capa_1_grid" x="0px" y="0px" width="32px" height="32px" viewBox="0 0 32 32" style="enable-background:new 0 0 32 32;" xml:space="preserve">
<g>
	<path d="M2,21.43v-5.025C1.395,17.045,1,17.9,1,19C1,20.064,1.415,20.85,2,21.43z" style="fill: rgb(255, 89, 22);"></path>
	<path d="M3,22.175c0.335,0.195,0.68,0.341,1,0.455v-7.44c-0.345,0.115-0.685,0.265-1,0.445V22.175z" style="fill: rgb(255, 89, 22);"></path>
	<path d="M5,22.91C5.305,22.98,5.5,23,5.5,23H6v-8.115c-0.32-0.01-0.66,0.015-1,0.07V22.91z" style="fill: rgb(255, 89, 22);"></path>
	<path d="M7,23h1v-9.855C7.21,14.065,7,15,7,15V23z" style="fill: rgb(255, 89, 22);"></path>
	<path d="M9,23h1V11.755c-0.38,0.14-0.71,0.315-1,0.51V23z" style="fill: rgb(255, 89, 22);"></path>
	<path d="M11,23h1V11.365c-0.36,0.01-0.69,0.05-1,0.11V23z" style="fill: rgb(255, 89, 22);"></path>
	<path d="M26.986,14.055C26.838,11.617,25.456,8,21,8c-4.366,0-6.229,2.504-6.777,3.451c-0.239-0.033-0.47-0.056-0.691-0.07   L13,11.347V23l13.918-0.007c0,0,0.151,0.026,0.394,0.026c0.748,0,3.188-0.289,3.188-4.02C30.5,15.114,28.053,14.248,26.986,14.055z    M27,22H14v-9.57c0.136,0.018,0.274,0.039,0.416,0.063l0.386,0.064l0.157-0.358C15.016,12.068,16.414,9,21,9c4.859,0,5,4.937,5,5.5   V15h0.5c0.122,0,3,0.045,3,4C29.5,22.048,27.684,22.062,27,22z" style="fill: rgb(255, 89, 22);"></path>
</g>
</svg>