<svg xmlns="http://www.w3.org/2000/svg" xmlns:xlink="http://www.w3.org/1999/xlink" version="1.1" id="599155810_Capa_1_grid" x="0px" y="0px" width="32px" height="32px" viewBox="0 0 32 32" style="enable-background:new 0 0 32 32;" xml:space="preserve">
<path d="M31.251,6.59C31.057,6.369,30.78,6.25,30.5,6.25c-0.143,0-0.287,0.03-0.422,0.093c-0.156,0.073-0.321,0.139-0.493,0.198  c0.392-0.678,0.684-1.38,0.872-2.002c0.121-0.399-0.019-0.832-0.351-1.085C29.928,3.319,29.714,3.25,29.5,3.25  c-0.185,0-0.369,0.051-0.533,0.154l-0.119,0.076c-0.896,0.565-1.69,1.065-2.588,1.352C25.286,3.73,24.238,2.75,21.438,2.75  c-0.045,0-0.089,0.003-0.133,0.009c-2.563,0.345-4.418,1.341-5.516,2.963c-1.13,1.67-1.189,3.603-0.999,5.038  c-2.095-0.111-6.886-0.937-9.396-5.957C5.25,4.515,4.978,4.314,4.66,4.263C4.607,4.254,4.553,4.25,4.5,4.25  c-0.263,0-0.518,0.104-0.707,0.293C2.832,5.504,1.5,7.675,1.5,9.25c0,1.011,0.141,1.86,0.468,2.653  C1.679,12.084,1.5,12.403,1.5,12.75c0,1.786,0.438,3.276,1.339,4.556c0.165,0.236,0.341,0.459,0.53,0.669  c-0.004,0.003-0.008,0.007-0.013,0.011c-0.305,0.257-0.429,0.67-0.313,1.053c0.665,2.212,2.784,3.93,4.987,4.727  c-2.397,1.195-5.543,1.49-6.387,1.49l-0.052-0.001c-0.039-0.004-0.077-0.006-0.115-0.006c-0.412,0-0.778,0.257-0.925,0.652  c-0.16,0.432,0.007,0.918,0.388,1.177c3.099,2.105,6.316,3.173,9.562,3.173c10.941,0,18.293-10.043,18.299-19.426  c1.166-0.984,1.913-2.038,2.546-3.039C31.582,7.41,31.544,6.923,31.251,6.59z M27.781,10.359c0.018,0.271,0.018,0.182,0.018,0.453  c0,8.328-6.36,18.438-17.299,18.438c-3.354,0-6.372-1.215-9-3c0.028,0.003,0.077,0.005,0.143,0.005c1.021,0,6.303-0.451,8.857-3.005  c-2.61-0.055-5.748-1.999-6.5-4.5c0.72,0.36,1.332,0.469,1.807,0.469c0.722,0,1.13-0.25,1.13-0.25  c-1.359-0.29-2.492-1.105-3.281-2.238C2.859,15.598,2.5,14.272,2.5,12.75c0.594,0.5,1,1,2,1c-1.5-1.5-2-2.688-2-4.5  c0-1.16,1.094-3.094,2-4c2.995,5.99,8.892,6.525,10.851,6.525c0.412,0,0.649-0.024,0.649-0.025c-0.109-0.462-2-7,5.438-8  c2.719,0,3.398,0.981,4.477,2.205c1.359-0.281,2.436-0.98,3.586-1.705c-0.444,1.468-1.393,3.064-2.625,3.844  C28.08,7.939,29.431,7.748,30.5,7.25C29.703,8.51,28.941,9.471,27.781,10.359z" style="fill: rgb(255, 89, 22);"></path>
</svg>