<svg xmlns="http://www.w3.org/2000/svg" xmlns:xlink="http://www.w3.org/1999/xlink" version="1.1" id="599155805_Capa_1_grid" x="0px" y="0px" width="32px" height="32px" viewBox="0 0 32 32" style="enable-background:new 0 0 32 32;" xml:space="preserve">
<g>
	<path d="M1,29h6V11H1V29z M2,12h4v16H2V12z" style="fill: rgb(255, 89, 22);"></path>
	<path d="M27.5,10h-7.36l1.275-5.113l0.051-0.506c0-0.642-1.223-2.105-2.248-3.219l-0.346-0.376L9.653,9.64   C9.07,10.202,8,11.942,8,13.1v12.4c0,1.799,1.74,3.5,3.58,3.5h12.653c1.358,0,2.866-0.977,3.365-2.186l3.367-8.633L31,13.5   C31,11.21,29.79,10,27.5,10z M30,17.906l-3.329,8.536C26.328,27.272,25.189,28,24.233,28H11.58C10.278,28,9,26.762,9,25.5V13.1   c0-0.789,0.892-2.301,1.346-2.739l8.478-8.143c0.798,0.902,1.581,1.899,1.645,2.111l-0.036,0.385L18.859,11H27.5   c1.729,0,2.5,0.771,2.5,2.5V17.906z" style="fill: rgb(255, 89, 22);"></path>
</g>
</svg>