<svg xmlns="http://www.w3.org/2000/svg" xmlns:xlink="http://www.w3.org/1999/xlink" version="1.1" id="599155820_Capa_1_grid" x="0px" y="0px" width="32px" height="32px" viewBox="0 0 32 32" style="enable-background:new 0 0 32 32;" xml:space="preserve">
<g>
	<path d="M26.085,18.723c-0.729-1.584-3.051-2.452-3.527-2.563c-0.238-0.09-0.476-0.136-0.703-0.136   c-0.975,0-1.571,0.791-2.098,1.488l-0.243,0.316c-0.766,0.975-2.143,0.539-4.224-1.105c-3.137-2.481-2.321-3.514-2.054-3.854   l0.255-0.314c0.63-0.764,1.494-1.81,0.696-2.98c-0.298-0.584-1.915-2.941-3.827-2.941c-0.574,0-1.111,0.208-1.597,0.621   c-1.186,1.009-1.995,2.828-2.013,4.555c0.148,3.011,3.068,6.336,5.749,8.443c2.941,2.336,6.128,3.731,8.527,3.731   c0.355,0,0.699-0.03,1.049-0.097c1.647-0.413,3.229-1.62,3.937-3.006C26.378,20.159,26.403,19.413,26.085,18.723z M25.12,20.427   c-0.574,1.125-1.926,2.148-3.258,2.483c-2.151,0.399-5.637-0.976-8.743-3.443c-3.154-2.478-5.262-5.503-5.37-7.677   c0.015-1.402,0.699-2.954,1.661-3.773c0.304-0.258,0.614-0.383,0.949-0.383c1.304,0,2.667,1.867,2.968,2.449   c0.372,0.549,0.115,0.96-0.608,1.836l-0.269,0.33c-1.13,1.431-0.384,3.2,2.218,5.258c2.663,2.103,4.52,2.345,5.629,0.94   l0.256-0.334c0.424-0.561,0.823-1.091,1.3-1.091c0.106,0,0.224,0.024,0.408,0.091c0.492,0.119,2.394,0.896,2.914,2.027   C25.367,19.556,25.349,19.977,25.12,20.427z" style="fill: rgb(255, 89, 22);"></path>
	<path d="M16.25,1C8.117,1,1.5,7.617,1.5,15.75c0,2.775,0.772,5.471,2.235,7.81l-1.73,7.143l5.666-2.954   c2.512,1.802,5.472,2.752,8.58,2.752C24.383,30.5,31,23.883,31,15.75C31,7.617,24.383,1,16.25,1z M16.25,29.5   c-2.996,0-5.844-0.947-8.235-2.739l-0.252-0.188l-4.268,2.226l1.313-5.418l-0.117-0.181C3.258,20.98,2.5,18.404,2.5,15.75   C2.5,8.168,8.668,2,16.25,2C23.832,2,30,8.168,30,15.75C30,23.332,23.832,29.5,16.25,29.5z" style="fill: rgb(255, 89, 22);"></path>
</g>
</svg>