<svg xmlns="http://www.w3.org/2000/svg" xmlns:xlink="http://www.w3.org/1999/xlink" version="1.1" id="599155829_Capa_1_grid" x="0px" y="0px" width="32px" height="32px" viewBox="0 0 32 32" style="enable-background:new 0 0 32 32;" xml:space="preserve">
<g>
	<path d="M23.5,6h-15C2.074,6,2,9.96,2,10v13c0,0.04,0.074,4,6.5,4h15c6.426,0,6.5-3.96,6.5-4V10C30,9.96,29.926,6,23.5,6z M29,23   c0,0.03-0.063,3-5.5,3h-15c-5.381,0-5.498-2.882-5.5-3V10c0-0.03,0.063-3,5.5-3h15c5.381,0,5.498,2.882,5.5,3V23z" style="fill: rgb(255, 89, 22);"></path>
	<path d="M12,21.309l9.618-4.809L12,11.691V21.309z M13,13.309l6.382,3.191L13,19.691V13.309z" style="fill: rgb(255, 89, 22);"></path>
</g>
</svg>